<svg width="35" height="35" viewBox="0 0 35 35" fill="none" xmlns="http://www.w3.org/2000/svg">
<g id="Instagram">
<path id="Vector" d="M27.2341 34.9815L7.79991 35C3.52439 35.0039 0.0233243 31.5096 0.0184658 27.2341L3.2395e-06 7.79991C-0.0038836 3.52439 3.49038 0.0233243 7.7659 0.0184658L27.2001 3.2395e-06C31.4756 -0.0038836 34.9767 3.49038 34.9815 7.7659L35 27.2001C35.0049 31.4766 31.5096 34.9776 27.2341 34.9815Z" fill="url(#paint0_radial_538_552)"/>
<path id="Vector_2" d="M27.2341 34.9815L7.79991 35C3.52439 35.0039 0.0233243 31.5096 0.0184658 27.2341L3.2395e-06 7.79991C-0.0038836 3.52439 3.49038 0.0233243 7.7659 0.0184658L27.2001 3.2395e-06C31.4756 -0.0038836 34.9767 3.49038 34.9815 7.7659L35 27.2001C35.0049 31.4766 31.5096 34.9776 27.2341 34.9815Z" fill="url(#paint1_radial_538_552)"/>
<path id="Vector_3" d="M17.5005 24.3027C13.7507 24.3027 10.6985 21.2515 10.6985 17.5007C10.6985 13.7499 13.7507 10.6987 17.5005 10.6987C21.2503 10.6987 24.3025 13.7499 24.3025 17.5007C24.3025 21.2515 21.2503 24.3027 17.5005 24.3027ZM17.5005 12.6421C14.8215 12.6421 12.642 14.8217 12.642 17.5007C12.642 20.1797 14.8215 22.3592 17.5005 22.3592C20.1795 22.3592 22.3591 20.1797 22.3591 17.5007C22.3591 14.8217 20.1795 12.6421 17.5005 12.6421Z" fill="white"/>
<path id="Vector_4" d="M24.7884 11.6705C25.5934 11.6705 26.2459 11.0179 26.2459 10.2129C26.2459 9.40794 25.5934 8.75537 24.7884 8.75537C23.9834 8.75537 23.3308 9.40794 23.3308 10.2129C23.3308 11.0179 23.9834 11.6705 24.7884 11.6705Z" fill="white"/>
<path id="Vector_5" d="M23.3308 30.1331H11.6702C7.92042 30.1331 4.86829 27.0819 4.86829 23.3311V11.6706C4.86829 7.91982 7.92042 4.86865 11.6702 4.86865H23.3308C27.0806 4.86865 30.1327 7.91982 30.1327 11.6706V23.3311C30.1327 27.0819 27.0806 30.1331 23.3308 30.1331ZM11.6702 6.81207C8.99125 6.81207 6.8117 8.99161 6.8117 11.6706V23.3311C6.8117 26.0101 8.99125 28.1897 11.6702 28.1897H23.3308C26.0098 28.1897 28.1893 26.0101 28.1893 23.3311V11.6706C28.1893 8.99161 26.0098 6.81207 23.3308 6.81207H11.6702Z" fill="white"/>
</g>
<defs>
<radialGradient id="paint0_radial_538_552" cx="0" cy="0" r="1" gradientUnits="userSpaceOnUse" gradientTransform="translate(13.0112 35.0253) scale(43.6288 43.6288)">
<stop stop-color="#FFDD55"/>
<stop offset="0.328" stop-color="#FF543F"/>
<stop offset="0.348" stop-color="#FC5245"/>
<stop offset="0.504" stop-color="#E64771"/>
<stop offset="0.643" stop-color="#D53E91"/>
<stop offset="0.761" stop-color="#CC39A4"/>
<stop offset="0.841" stop-color="#C837AB"/>
</radialGradient>
<radialGradient id="paint1_radial_538_552" cx="0" cy="0" r="1" gradientUnits="userSpaceOnUse" gradientTransform="translate(5.63203 -0.436972) scale(28.9696 19.3024)">
<stop stop-color="#4168C9"/>
<stop offset="0.999" stop-color="#4168C9" stop-opacity="0"/>
</radialGradient>
</defs>
</svg>
