<svg width="35" height="35" viewBox="0 0 35 35" fill="none" xmlns="http://www.w3.org/2000/svg">
<g id="Group 2175">
<path id="Vector" d="M17.5 0C12.8587 0 8.40752 1.84374 5.12563 5.12563C1.84374 8.40752 0 12.8587 0 17.5C0 22.1413 1.84374 26.5925 5.12563 29.8744C8.40752 33.1563 12.8587 35 17.5 35C22.1413 35 26.5925 33.1563 29.8744 29.8744C33.1563 26.5925 35 22.1413 35 17.5C35 12.8587 33.1563 8.40752 29.8744 5.12563C26.5925 1.84374 22.1413 0 17.5 0Z" fill="#29B6F6"/>
<path id="Vector_2" d="M26.2063 9.62451L22.9285 26.3598C22.9285 26.3598 22.7876 27.1245 21.8391 27.1245C21.3351 27.1245 21.0753 26.8848 21.0753 26.8848L13.9755 20.9934L10.5018 19.2425L6.04362 18.0569C6.04362 18.0569 5.25 17.8276 5.25 17.1714C5.25 16.6245 6.06637 16.3638 6.06637 16.3638L24.7179 8.95426C24.7179 8.95426 25.2875 8.74864 25.7031 8.74951C25.9586 8.74951 26.25 8.85889 26.25 9.18701C26.25 9.40576 26.2063 9.62451 26.2063 9.62451Z" fill="white"/>
<path id="Vector_3" d="M16.625 23.1914L13.6273 26.1437C13.6273 26.1437 13.4969 26.2443 13.3228 26.2487C13.2624 26.2505 13.1977 26.2408 13.1312 26.2111L13.9747 20.9917L16.625 23.1914Z" fill="#B0BEC5"/>
<path id="Vector_4" d="M22.6599 12.4214C22.512 12.2289 22.239 12.1939 22.0465 12.34L10.5 19.2499C10.5 19.2499 12.3428 24.4054 12.6236 25.2979C12.9054 26.1913 13.1311 26.2123 13.1311 26.2123L13.9746 20.9929L22.5776 13.0339C22.7701 12.8878 22.806 12.6139 22.6599 12.4214Z" fill="#CFD8DC"/>
</g>
</svg>
