<svg width="35" height="35" viewBox="0 0 35 35" fill="none" xmlns="http://www.w3.org/2000/svg">
<g id="Group 2176">
<path id="Vector" d="M35 30.1389C35 32.8242 32.8242 35 30.1389 35H4.86111C2.17681 35 0 32.8242 0 30.1389V4.86111C0 2.17583 2.17681 0 4.86111 0H30.1389C32.8242 0 35 2.17583 35 4.86111V30.1389Z" fill="#1976D2"/>
<path id="Vector_2" d="M30.9288 10.1711C30.9805 10.0012 31.0053 9.84374 30.9985 9.70312C30.9816 9.29587 30.7015 9 30.0423 9H27.0971C26.3534 9 26.0103 9.44999 25.8101 9.90111C25.8101 9.90111 23.9741 13.6799 21.858 16.1718C21.1718 16.8929 20.823 16.8749 20.4518 16.8749C20.2527 16.8749 19.7498 16.6341 19.7498 15.9738V10.1407C19.7498 9.35999 19.5552 9 18.9263 9H13.6962C13.2384 9 12.9999 9.36 12.9999 9.72112C12.9999 10.4715 14.0101 10.6515 14.1249 12.7541V16.8299C14.1249 17.8199 13.9527 17.9999 13.5815 17.9999C12.5803 17.9999 10.6093 14.6249 9.28968 10.2015C9.00393 9.33075 8.71819 9 7.97457 9H5.00124C4.14287 9 4 9.42074 4 9.87074C4 10.6819 4.67499 15.067 8.35932 20.1092C11.0312 23.7654 14.5512 25.8748 17.6674 25.8748C19.5552 25.8748 19.7487 25.3944 19.7487 24.644V21.3006C19.7498 20.3995 19.9557 20.2498 20.5564 20.2498C20.985 20.2498 21.8591 20.5311 23.5466 22.4998C25.4928 24.77 25.8461 25.8748 26.9621 25.8748H29.9073C30.5913 25.8748 30.9839 25.5879 30.9996 25.031C31.003 24.8893 30.9828 24.7307 30.9366 24.554C30.7184 23.906 29.7172 22.3221 28.4684 20.8123C27.7766 19.9765 27.0937 19.1485 26.7798 18.6985C26.5694 18.4049 26.4896 18.1979 26.4997 17.9999C26.5098 17.7918 26.6178 17.5938 26.7798 17.317C26.7506 17.317 30.5575 11.9722 30.9288 10.1711Z" fill="white"/>
</g>
</svg>
